<?xml version="1.0" encoding="UTF-8"?> <!-- Generator: Adobe Illustrator 23.0.1, SVG Export Plug-In . SVG Version: 6.00 Build 0) --> <svg xmlns="http://www.w3.org/2000/svg" xmlns:xlink="http://www.w3.org/1999/xlink" id="Layer_1" x="0px" y="0px" viewBox="0 0 222.64 33.25" style="enable-background:new 0 0 222.64 33.25;" xml:space="preserve"> <style type="text/css"> .st0{fill:#D62D33;} </style> <g> <path class="st0" d="M199.87,3.11v28.2h20.3v-6.7h-12.9V3.11H199.87z M176.07,3.11v28.2h20.5v-6.5h-13.1v-4.6h11.6v-6.4h-11.6v-4.3 h12.8v-6.4H176.07z M163.67,31.21l10.6-28.2h-8l-6.4,19.3l-6.4-19.3h-8l10.6,28.2H163.67z M136.17,31.21h7.5V3.11h-7.5V31.21z M113.97,31.21v-11.5c0-1.5,0-3.3-0.2-4.6l11,16.1h7V3.11h-7.5v11.5c0,1.6,0,3.3,0.2,4.7l-11-16.2h-7v28.2L113.97,31.21 L113.97,31.21z"></path> <path d="M96.47,17.21c0,4.5-2.6,7.8-7.5,7.8s-7.5-3.3-7.5-7.8s2.6-7.8,7.5-7.8C93.97,9.31,96.47,12.61,96.47,17.21 M73.97,17.21 c0,7.8,5,14.7,15.1,14.7s15.1-6.8,15.1-14.7s-5-14.7-15.1-14.7S73.97,9.31,73.97,17.21 M50.67,3.11v6.6h8v21.5h7.5V9.71h7.9v-6.6 H50.67z M33.97,3.11v28.2h20.3v-6.7h-12.8V3.11H33.97z M16.47,12.61c0.2-0.7,0.5-1.4,0.7-2.9c0.2,1.5,0.5,2.2,0.7,2.9l2.9,8.1h-7.3 L16.47,12.61z M9.77,31.21l1.6-4.4h11.7l1.6,4.4h7.6l-11.1-28.1h-8l-11.1,28.1H9.77z"></path> </g> </svg> 