<?xml version="1.0" encoding="UTF-8"?> <!-- Generator: Adobe Illustrator 23.0.1, SVG Export Plug-In . SVG Version: 6.00 Build 0) --> <svg xmlns="http://www.w3.org/2000/svg" xmlns:xlink="http://www.w3.org/1999/xlink" id="Layer_1" x="0px" y="0px" viewBox="0 0 199.65 34.81" style="enable-background:new 0 0 199.65 34.81;" xml:space="preserve"> <style type="text/css"> .st0{fill:#0B0204;} .st1{fill:#EC1C24;} </style> <g> <path class="st0" d="M1.4,2.4h14.2c9.1,0,11.8,3.8,11.8,9.9s-2.5,10.6-12.1,10.6H7.8v9H1.4C1.4,31.8,1.4,2.4,1.4,2.4z M15.5,17.3 c3.7,0,5.3-1.3,5.3-4.7c0-3.5-1.5-4.6-5.4-4.6H7.7v9.3L15.5,17.3L15.5,17.3z"></path> <path class="st0" d="M41.8,22.1h-6.6v9.8h-6.4V2.4H43c9.3,0,11.5,4,11.5,9.6c0,4.1-1.3,7.8-6.2,9.3l5.8,10.5h-7L41.8,22.1z M42.8,16.5c3.5,0,5.1-0.9,5.1-4.2c0-3.4-1.5-4.3-5.2-4.3h-7.6v8.5C35.1,16.5,42.8,16.5,42.8,16.5z"></path> <path class="st0" d="M56.1,2.4h22.2v5.9H62.6V14h15.2v5.7H62.6v6.5h15.8v5.7H56.1V2.4L56.1,2.4z"></path> <path class="st0" d="M80.2,2.4h8.5l8,20.2l8-20.2h8.5v29.5h-6.4V12.2l-7.9,19.7H94l-7.8-19.6v19.6h-5.9L80.2,2.4L80.2,2.4z"></path> <path class="st0" d="M115.6,2.4h6.5v29.5h-6.5V2.4z"></path> <path class="st0" d="M124.6,2.4h22.2v5.9h-15.6V14h15.2v5.7h-15.2v6.5H147v5.7h-22.4V2.4z"></path> <path class="st0" d="M161.5,22.1h-6.6v9.8h-6.3V2.4h14.2c9.3,0,11.5,4,11.5,9.6c0,4.1-1.3,7.8-6.2,9.3l5.8,10.5H167L161.5,22.1z M162.6,16.5c3.5,0,5.1-0.9,5.1-4.2c0-3.4-1.5-4.3-5.2-4.3h-7.6v8.5C154.9,16.5,162.6,16.5,162.6,16.5z"></path> <path class="st0" d="M176.1,2.4h22.2v5.9h-15.7V14h15.2v5.7h-15.2v6.5h15.8v5.7h-22.3V2.4L176.1,2.4z"></path> <g> <path class="st1" d="M94.6,7.9c0,0.7-0.4,1.1-1.1,1.1s-1-0.4-1.1-1c0-0.6,0-1.8,0-2.4s0-1.9,0-2.2c0-0.8,0.4-1.1,1.2-1.1 c0.6,0,1,0.4,1,1.2v1h-0.7V3.4c0-0.2-0.1-0.4-0.3-0.4c-0.2,0-0.4,0.1-0.4,0.4s0,1.7,0,2.1c0,0.6,0,2,0,2.2c0,0.4,0.1,0.5,0.3,0.5 c0.1,0,0.3-0.1,0.3-0.6v-1h0.7L94.6,7.9L94.6,7.9z"></path> <path class="st1" d="M95.1,9V2.4h0.8V9H95.1z"></path> <path class="st1" d="M97.8,9l-0.7-3.4V9h-0.7V2.4h0.7l0.7,3.5V2.4h0.7V9H97.8z"></path> <path class="st1" d="M99.1,9V2.4h1.8v0.8h-1.1v2.1h1V6h-1v2.2h1.1V9C100.9,9,99.1,9,99.1,9z"></path> </g> </g> </svg> 