<?xml version="1.0" encoding="utf-8"?>
<!-- Generator: Adobe Illustrator 25.4.2, SVG Export Plug-In . SVG Version: 6.00 Build 0)  -->
<svg version="1.1" id="Capa_1" xmlns="http://www.w3.org/2000/svg" xmlns:xlink="http://www.w3.org/1999/xlink" x="0px" y="0px"
	 viewBox="0 0 336.8 55.3" style="enable-background:new 0 0 336.8 55.3;" xml:space="preserve">
<g>
	<g>
		<g>
			<path d="M66.3,25.3v13.6h-7.1V26.1c0-0.8-0.1-1.4-0.3-1.9c-0.2-0.4-0.7-0.6-1.5-0.6c-0.3,0-0.9,0.1-1.6,0.4
				c-0.7,0.3-1.4,0.5-2,0.8v0.6v13.6h-7.1V26.1c0-0.8-0.1-1.4-0.3-1.9c-0.2-0.4-0.7-0.6-1.5-0.6c-0.3,0-0.9,0.1-1.6,0.4
				c-0.7,0.3-1.4,0.5-2,0.8v14.1h-7.1v-21h5.3l0.1,2.2c2.7-1.9,5.2-2.9,7.5-2.9c2.5,0,4.3,0.9,5.3,2.6c2.6-1.7,4.9-2.6,7.1-2.6
				C64.1,17.2,66.3,19.9,66.3,25.3z"/>
			<path d="M88,28.1c0,3.7-0.9,6.5-2.7,8.4c-1.8,1.9-4.2,2.9-7.3,2.9c-0.9,0-1.7-0.1-2.5-0.4v9.9h-7.1V17.9h4.4l0.2,1.2
				c0.8-0.6,1.6-1.1,2.5-1.5c0.9-0.4,1.8-0.5,2.7-0.5c2.9,0,5.2,0.9,7,2.8C87.1,21.8,88,24.5,88,28.1z M80.7,28.1
				c0-1.6-0.3-2.8-0.9-3.7c-0.6-0.9-1.4-1.3-2.6-1.3c-0.5,0-1.1,0.2-1.7,0.6v8.9c0.7,0.4,1.4,0.6,2,0.6c0.9,0,1.7-0.5,2.2-1.4
				C80.4,31,80.7,29.7,80.7,28.1z"/>
			<path d="M136,23.6c-0.4,0-1,0.1-1.7,0.4c-0.7,0.2-1.4,0.5-2.1,0.8v14.1h-7.1v-21h5.3l0.1,2.2c2.7-1.9,5.3-2.9,7.7-2.9
				c2.3,0,4,0.7,5.1,2.2c1.1,1.5,1.7,3.5,1.7,5.9v13.6H138V26.1c0-0.7-0.2-1.3-0.5-1.8C137.2,23.8,136.7,23.6,136,23.6z"/>
			<path d="M166.5,38.9h-4.3l-0.3-1.5c-0.8,0.6-1.6,1.1-2.5,1.5c-0.9,0.4-1.8,0.5-2.7,0.5c-2.9,0-5.2-0.9-7-2.8
				c-1.8-1.8-2.7-4.6-2.7-8.2c0-3.7,0.9-6.5,2.7-8.4c1.8-1.9,4.2-2.9,7.3-2.9c0.9,0,1.7,0.1,2.5,0.4V8.8l7.1-0.5V38.9z M157.8,33.3
				c0.6,0,1.1-0.2,1.7-0.6v-8.9c-0.7-0.4-1.4-0.6-2-0.6c-0.9,0-1.7,0.5-2.2,1.4c-0.6,0.9-0.9,2.2-0.9,3.8c0,1.6,0.3,2.8,0.9,3.7
				C155.8,32.9,156.6,33.3,157.8,33.3z"/>
			<path d="M209.1,38.9h-4.3l-0.3-1.5c-0.8,0.6-1.6,1.1-2.5,1.5c-0.9,0.4-1.8,0.5-2.7,0.5c-2.9,0-5.2-0.9-7-2.8
				c-1.8-1.8-2.7-4.6-2.7-8.2c0-3.7,0.9-6.5,2.7-8.4c1.8-1.9,4.2-2.9,7.3-2.9c0.9,0,1.7,0.1,2.5,0.4V8.8l7.1-0.5V38.9z M200.3,33.3
				c0.6,0,1.1-0.2,1.7-0.6v-8.9c-0.7-0.4-1.4-0.6-2-0.6c-0.9,0-1.7,0.5-2.2,1.4c-0.6,0.9-0.9,2.2-0.9,3.8c0,1.6,0.3,2.8,0.9,3.7
				C198.4,32.9,199.2,33.3,200.3,33.3z"/>
			<path d="M221.5,39.4c-3.2,0-5.7-0.9-7.6-2.8c-1.9-1.9-2.9-4.6-2.9-8.3c0-2.3,0.5-4.3,1.4-6c0.9-1.7,2.2-3,3.8-3.9
				c1.6-0.9,3.4-1.3,5.4-1.3c2.1,0,3.9,0.4,5.5,1.3c1.6,0.9,2.9,2.2,3.8,3.9c0.9,1.7,1.4,3.8,1.4,6.2c0,2.3-0.5,4.2-1.4,5.9
				c-0.9,1.6-2.2,2.9-3.9,3.7C225.4,38.9,223.5,39.4,221.5,39.4z M225,28.5c0-1.4-0.3-2.6-0.9-3.6c-0.6-0.9-1.4-1.4-2.4-1.4
				c-1.1,0-1.9,0.4-2.5,1.3c-0.6,0.8-0.9,2-0.9,3.5c0,1.4,0.3,2.6,0.9,3.4c0.6,0.8,1.4,1.3,2.4,1.3c1.1,0,2-0.4,2.6-1.1
				C224.7,31.1,225,30,225,28.5z"/>
			<path d="M101.5,17.9c-1,0-2.1,0.3-3.2,0.8c-1.2,0.5-2.2,1.1-3.1,1.8l-0.1-2.5h-2.4v0H90v21H97V26.5c0.8-0.7,1.8-1.3,2.9-1.7
				c1.1-0.4,2.1-0.6,3.1-0.6L101.5,17.9z"/>
			<path d="M245.8,17.9c-1,0-2.1,0.3-3.2,0.8c-1.2,0.5-2.2,1.1-3.1,1.8l-0.1-2.5H237v0h-2.7v21h7.1V26.5c0.8-0.7,1.8-1.3,2.9-1.7
				c1.1-0.4,2.1-0.6,3.1-0.6L245.8,17.9z"/>
			<path d="M114,16.8c1.9,0,3.6,0.5,4.9,1.5c1.3,1,2.4,2.3,3,3.9c0.7,1.6,1,3.5,1,5.5V30h-11.4c0.3,0.9,0.7,1.6,1.5,2.1
				c0.7,0.5,1.6,0.8,2.8,0.8c1.8,0,3.5-0.5,5.2-1.4l2,5.3c-0.8,0.6-1.9,1.2-3.4,1.6c-1.5,0.4-3,0.6-4.5,0.6c-2.2,0-4.1-0.4-5.8-1.3
				c-1.7-0.8-3-2.1-4-3.7c-1-1.7-1.4-3.6-1.4-6c0-2.3,0.4-4.3,1.3-6c0.9-1.7,2.1-3,3.6-3.9C110.3,17.3,112.1,16.8,114,16.8z
				 M113.8,23.1c-0.6,0-1.2,0.3-1.7,0.9c-0.5,0.6-0.7,1.3-0.7,2.1h4.9c0-0.7-0.2-1.4-0.6-2C115.2,23.4,114.6,23.1,113.8,23.1z"/>
			<path d="M178.6,16.8c1.9,0,3.6,0.5,4.9,1.5c1.3,1,2.4,2.3,3,3.9c0.7,1.6,1,3.5,1,5.5V30h-11.4c0.3,0.9,0.7,1.6,1.5,2.1
				c0.7,0.5,1.6,0.8,2.8,0.8c1.8,0,3.5-0.5,5.2-1.4l2,5.3c-0.8,0.6-1.9,1.2-3.4,1.6c-1.5,0.4-3,0.6-4.5,0.6c-2.2,0-4.1-0.4-5.8-1.3
				c-1.7-0.8-3-2.1-4-3.7c-1-1.7-1.4-3.6-1.4-6c0-2.3,0.4-4.3,1.3-6c0.9-1.7,2.1-3,3.6-3.9C175,17.3,176.7,16.8,178.6,16.8z
				 M178.4,23.1c-0.6,0-1.2,0.3-1.7,0.9c-0.5,0.6-0.7,1.3-0.7,2.1h4.9c0-0.7-0.2-1.4-0.6-2C179.8,23.4,179.2,23.1,178.4,23.1z"/>
		</g>
		<path d="M31.7,32.3l0.7,6.2H10.9V9h20.8l0.7,6.2H18.8v5.4h9.1l0.7,6.2h-9.8v5.5H31.7z"/>
	</g>
	<g>
		<path d="M251.7,36.1c0,0.8-0.3,1.4-0.8,2c-0.5,0.5-1.2,0.8-2,0.8c-0.8,0-1.4-0.3-2-0.8c-0.5-0.5-0.8-1.2-0.8-2
			c0-0.8,0.3-1.4,0.8-2c0.5-0.5,1.2-0.8,2-0.8c0.8,0,1.4,0.3,2,0.8C251.4,34.6,251.7,35.3,251.7,36.1z"/>
		<path d="M264.5,35.3c1,0,2-0.1,2.8-0.3c0.8-0.2,1.8-0.6,2.8-1l1.4,3.4c-0.9,0.6-2,1.1-3.4,1.5c-1.4,0.4-2.6,0.5-3.6,0.5
			c-2.1,0-4-0.4-5.5-1.3c-1.6-0.9-2.8-2.1-3.6-3.7c-0.9-1.6-1.3-3.5-1.3-5.6c0-2.1,0.4-4,1.3-5.6c0.8-1.6,2.1-2.8,3.7-3.7
			c1.6-0.9,3.4-1.3,5.6-1.3c0.9,0,2.1,0.2,3.5,0.6c1.4,0.4,2.5,0.9,3.4,1.5l-1.3,3.3c-1.1-0.5-2-0.8-2.9-1c-0.8-0.2-1.7-0.3-2.7-0.3
			c-1.7,0-3,0.6-4.1,1.9c-1,1.3-1.6,2.8-1.6,4.8c0,2,0.5,3.6,1.5,4.8C261.4,34.7,262.8,35.3,264.5,35.3z"/>
		<path d="M283.1,39.4c-2.1,0-4-0.4-5.5-1.3c-1.6-0.9-2.8-2.1-3.6-3.7c-0.9-1.6-1.3-3.5-1.3-5.6c0-2.1,0.4-4,1.3-5.6
			c0.8-1.6,2.1-2.8,3.7-3.7c1.6-0.9,3.4-1.3,5.6-1.3c2.1,0,4,0.4,5.5,1.3c1.6,0.9,2.8,2.1,3.6,3.7c0.8,1.6,1.3,3.5,1.3,5.6
			c0,2.1-0.4,4-1.3,5.6c-0.9,1.6-2.1,2.9-3.7,3.8C287,38.9,285.2,39.4,283.1,39.4z M288.7,28.7c0-2-0.5-3.6-1.5-4.8
			c-1-1.2-2.4-1.9-4.1-1.9c-1.7,0-3,0.6-4.1,1.9c-1,1.3-1.6,2.8-1.6,4.8c0,2,0.5,3.6,1.5,4.8c1,1.2,2.4,1.8,4.1,1.8
			c1.7,0,3.1-0.6,4.1-1.9C288.2,32.2,288.7,30.6,288.7,28.7z"/>
		<path d="M326.7,25.4v13.5H322V26.1c0-1.4-0.2-2.4-0.6-3.2c-0.4-0.7-1.2-1.1-2.2-1.1c-0.8,0-1.7,0.2-2.5,0.7
			c-0.9,0.5-1.9,1.1-2.9,1.9l0,0.9v13.5H309V26.1c0-1.4-0.2-2.4-0.6-3.2c-0.4-0.7-1.2-1.1-2.2-1.1c-1.5,0-3.3,0.9-5.6,2.8v14.2h-4.7
			V18.5h3.1l0.8,2.4c1.2-0.9,2.4-1.7,3.8-2.2c1.3-0.6,2.6-0.9,3.7-0.9c2.7,0,4.6,1,5.6,3.1c1.2-0.9,2.4-1.7,3.7-2.2
			c1.3-0.6,2.5-0.8,3.7-0.8c2.2,0,3.8,0.7,4.9,2C326.2,21.1,326.7,23,326.7,25.4z"/>
	</g>
</g>
</svg>
