<?xml version="1.0" encoding="utf-8"?>
<!-- Generator: Adobe Illustrator 23.0.1, SVG Export Plug-In . SVG Version: 6.00 Build 0)  -->
<svg version="1.1" id="Layer_1" xmlns="http://www.w3.org/2000/svg" xmlns:xlink="http://www.w3.org/1999/xlink" x="0px" y="0px"
	 viewBox="0 0 386 274" style="enable-background:new 0 0 386 274;" xml:space="preserve">
<style type="text/css">
	.st0{fill:#1D1D1B;}
	.st1{fill:#EF7D00;}
</style>
<g>
	<path class="st0" d="M145.6,50.55c0,0,4.12-12.85,7.14-22.51c-27.43,0.79-47.1-0.96-47.1-0.96S79.96,19,55.54,34.69
		c-24.42,15.7-29.33,39.32-24.1,59.78c5.23,20.46,22.2,30.44,22.2,30.44s-2.86,9.35-6.98,23.78c37.58-26.32,58.66-9.2,63.74,4.44
		c5.07,13.63-2.06,26.64-10.15,31.87s-18.23,7.13-30.28,0.95c-12.05-6.18-17.76-18.39-17.76-18.39s-9.99,11.73-20.29,23.94
		c21.09,32.66,55.49,30.44,68.81,26.8c13.32-3.65,39.32-18.55,42.65-46.3c3.33-27.75-10.62-42.33-18.71-50.9
		c12.21-8.72,20.93-19.18,22.67-36.31c1.75-17.13-10.46-34.25-10.46-34.25H145.6z M88.68,108.42c-14.53,0-26.32-11.96-26.32-26.72
		s11.79-26.72,26.32-26.72c14.53,0,26.32,11.96,26.32,26.72S103.21,108.42,88.68,108.42"/>
	<path class="st1" d="M184.45,83.69c0,0,5.23-14.43,17.44-21.09c12.21-6.66,25.53-5.39,33.3,1.59c7.77,6.97,10.94,18.39,4.76,31.71
		c-6.18,13.32-17.28,29.97-24.73,39.49c-7.46,9.51-54.39,67.22-54.39,67.22v17.13h116.7v-32.82h-58.98c0,0,30.12-38.37,40.9-56.28
		C270.22,112.7,279.11,99.39,278,76.4c-1.1-22.99-16.33-41.38-37.1-47.89c-20.78-6.5-36.63-2.85-49.79,2.7
		c-13.16,5.55-26,17.92-31.24,29.02C166.85,66.72,184.45,83.69,184.45,83.69"/>
	<polygon class="st1" points="283.07,56.89 319.7,56.89 319.7,220.21 354.74,220.21 354.74,25.02 303.05,25.02 	"/>
	<path class="st0" d="M29.9,241.87v-0.04c0-4.42,3.4-7.88,7.98-7.88c3.09,0,5.08,1.3,6.43,3.16l-3.16,2.44
		c-0.87-1.09-1.86-1.77-3.31-1.77c-2.12,0-3.62,1.8-3.62,4v0.05c0,2.27,1.49,4.04,3.62,4.04c1.58,0,2.51-0.73,3.42-1.83l3.15,2.25
		c-1.43,1.96-3.35,3.41-6.71,3.41C33.38,249.7,29.9,246.4,29.9,241.87"/>
	<path class="st0" d="M58.66,241.87v-0.04c0-4.35,3.5-7.88,8.18-7.88c4.67,0,8.14,3.48,8.14,7.83v0.05c0,4.35-3.5,7.87-8.18,7.87
		C62.12,249.7,58.66,246.22,58.66,241.87 M70.69,241.87v-0.04c0-2.19-1.58-4.09-3.89-4.09c-2.29,0-3.83,1.86-3.83,4.04v0.05
		c0,2.18,1.58,4.09,3.87,4.09C69.15,245.92,70.69,244.06,70.69,241.87"/>
	<polygon class="st0" points="90.56,234.26 95,234.26 98.61,240.12 102.22,234.26 106.66,234.26 106.66,249.4 102.48,249.4 
		102.48,240.71 98.61,246.64 98.52,246.64 94.67,240.75 94.67,249.4 90.56,249.4 	"/>
	<path class="st0" d="M122.55,242.76v-8.5h4.26v8.42c0,2.18,1.1,3.22,2.78,3.22c1.69,0,2.79-1,2.79-3.11v-8.52h4.26v8.39
		c0,4.89-2.79,7.03-7.1,7.03C125.25,249.68,122.55,247.5,122.55,242.76"/>
	<polygon class="st0" points="152.54,234.26 156.46,234.26 162.69,242.26 162.69,234.26 166.84,234.26 166.84,249.4 163.17,249.4 
		156.7,241.09 156.7,249.4 152.54,249.4 	"/>
	<rect x="183.01" y="234.26" class="st0" width="4.22" height="15.14"/>
	<path class="st0" d="M202.89,241.87v-0.04c0-4.42,3.4-7.88,7.98-7.88c3.09,0,5.09,1.3,6.43,3.16l-3.16,2.44
		c-0.87-1.09-1.86-1.77-3.31-1.77c-2.12,0-3.62,1.8-3.62,4v0.05c0,2.27,1.5,4.04,3.62,4.04c1.58,0,2.51-0.73,3.42-1.83l3.15,2.25
		c-1.43,1.96-3.35,3.41-6.71,3.41C206.38,249.7,202.89,246.4,202.89,241.87"/>
	<path class="st0" d="M237.71,234.16h4.05l6.44,15.25h-4.5l-1.1-2.7h-5.84l-1.08,2.7h-4.42L237.71,234.16z M241.39,243.43l-1.69-4.3
		l-1.71,4.3H241.39z"/>
	<path class="st0" d="M261.59,241.87v-0.04c0-4.42,3.4-7.88,7.98-7.88c3.09,0,5.08,1.3,6.42,3.16l-3.15,2.44
		c-0.87-1.09-1.86-1.77-3.31-1.77c-2.12,0-3.62,1.8-3.62,4v0.05c0,2.27,1.5,4.04,3.62,4.04c1.58,0,2.51-0.73,3.42-1.83l3.15,2.25
		c-1.43,1.96-3.35,3.41-6.7,3.41C265.07,249.7,261.59,246.4,261.59,241.87"/>
	<rect x="291.39" y="234.26" class="st0" width="4.22" height="15.14"/>
	<path class="st0" d="M311.27,241.88v-0.05c0-4.35,3.5-7.87,8.18-7.87c4.67,0,8.13,3.48,8.13,7.83v0.04c0,4.35-3.5,7.88-8.18,7.88
		C314.73,249.71,311.27,246.22,311.27,241.88 M323.29,241.88v-0.05c0-2.18-1.57-4.09-3.89-4.09c-2.29,0-3.83,1.87-3.83,4.05v0.04
		c0,2.18,1.58,4.09,3.87,4.09C321.76,245.92,323.29,244.06,323.29,241.88 M320.16,229.5l3.91,1.19l-3.2,2.32h-3.05L320.16,229.5z"/>
	<polygon class="st0" points="343.17,234.26 347.08,234.26 353.31,242.26 353.31,234.26 357.46,234.26 357.46,249.4 353.79,249.4 
		347.32,241.09 347.32,249.4 343.17,249.4 	"/>
</g>
</svg>
