<?xml version="1.0" encoding="UTF-8"?> <!-- Generator: Adobe Illustrator 23.0.1, SVG Export Plug-In . SVG Version: 6.00 Build 0) --> <svg xmlns="http://www.w3.org/2000/svg" xmlns:xlink="http://www.w3.org/1999/xlink" id="Capa_1" x="0px" y="0px" viewBox="0 0 179.72 46.34" style="enable-background:new 0 0 179.72 46.34;" xml:space="preserve"> <g> <path d="M9.28,3v5.7c1.5-3.2,4.2-5.5,8.8-5.5c5.9,0,9.2,3.8,9.2,10.3v19.1h-6.5V14.9c0-3.8-1.2-6.1-4.9-6.1s-6.8,2.5-6.8,8.2v15.7 h-6.3V3H9.28z"></path> <path d="M36.68,3v18.6c0,3.8,1.2,6.1,4.9,6.1c3.6,0,6.8-2.5,6.8-8.2V3h6.4v29.6h-6.4v-4.9c-1.5,3.2-4.2,5.5-8.8,5.5 c-5.9,0-9.2-3.8-9.2-10.3V3H36.68z"></path> <path d="M64.08,16.8c0,5.2,2.1,9.4,7.2,9.4c4.7,0,6.9-3.6,6.9-9.6c0-4.2-2.2-8.1-6.9-8.1C66.68,8.6,64.08,10.4,64.08,16.8 M84.68,16.7c0,8.9-4.7,15-11.8,15c-4.3,0-7.5-2.8-8.8-6.4v17.1h-6.4V3h6.4v6.6c1.3-3.5,4.1-6.4,8.8-6.4 C80.08,3.3,84.68,7.7,84.68,16.7"></path> <path d="M113.68,14h-6.5c-0.3-3.1-2.5-5.5-6.1-5.5c-4.8,0-7.1,3.8-7.1,9.7s2.3,9.7,7.1,9.7c3.6,0,5.9-2.3,6.1-5.5h6.5 c-0.4,6.5-5.8,10.7-12.3,10.7c-8.6,0-13.7-6-13.7-15s5.1-15,13.7-15C107.88,3.3,113.28,7.5,113.68,14"></path> <rect x="116.58" y="3" width="6.4" height="29.9"></rect> <path d="M132.48,24.5c0,2.5,1.5,3.9,4.2,3.9c3.9,0,7.3-2.6,7.3-7v-1.9c-0.8-0.1-1.7-0.1-2.6-0.1 C135.48,19.5,132.48,20.9,132.48,24.5 M150.38,12.8V33h-6.4v-5c-1.6,3.5-4.6,5.5-9.3,5.5c-5.5,0-8.8-3-8.8-7.9 c0-6.5,4.4-10.2,15.3-10.2c0.9,0,2,0.1,2.8,0.1v-2.7c0-2.6-1.1-4.3-5.1-4.3c-3.9,0-6.1,1.7-6.3,4.7h-6c0.5-5.9,4.9-9.4,12.5-9.4 C147.68,3.6,150.38,7.5,150.38,12.8"></path> <path d="M177.48,12.5h-6c-0.1-2.6-2.4-4.2-5.8-4.2c-4,0-5.6,1.8-5.6,3.7c0,2.5,2.5,3.1,5.7,3.6c5.5,0.6,11.8,1.7,11.8,8.6 c0,5.2-3.5,9.3-12.3,9.3c-7.6,0-11.8-3.6-12.1-9h6.1c0.1,2.5,2.5,4.2,6.3,4.2c4.6,0,6-1.9,6-3.8c0-2.8-2.6-3.5-5.9-3.9 c-5.9-0.7-11.7-1.7-11.7-8.6c0-4.8,4.2-8.9,11.5-8.9C173.08,3.6,177.28,7.2,177.48,12.5"></path> <path d="M176.78,31.9c0.5,0,0.8,0.4,0.8,0.8c0,0.5-0.3,0.8-0.8,0.8s-0.8-0.4-0.8-0.8C175.98,32.3,176.38,31.9,176.78,31.9 L176.78,31.9z M176.78,31.7c-0.6,0-1,0.5-1,1c0,0.6,0.5,1,1,1c0.6,0,1-0.4,1-1C177.78,32.2,177.38,31.7,176.78,31.7L176.78,31.7z M176.58,32.4h0.1c0.1,0,0.2,0.1,0.2,0.2c0,0.1-0.1,0.1-0.2,0.1h-0.1V32.4z M176.58,32.8h0.1c0.1,0,0.2,0,0.2,0.2 c0,0.1,0,0.2,0.1,0.2h0.3c0,0,0-0.1-0.1-0.2c0-0.1-0.1-0.2-0.2-0.2l0,0c0.1,0,0.2-0.1,0.2-0.2s0-0.2-0.1-0.2s-0.2-0.1-0.4-0.1 s-0.3,0-0.4,0v1h0.2L176.58,32.8L176.58,32.8z"></path> <path d="M51.48,37.1c0.5,0,0.7,0.4,0.7,0.8c0,1-0.5,1.7-1.4,1.7c-0.2,0-0.5,0-0.8-0.1C50.28,37.8,50.68,37.1,51.48,37.1 M51.48,37 c-1.5,0-2.7,1.1-3,2.7c-0.3,1.7,0.5,2.6,2.1,2.6c1,0,2-0.6,2.3-1.8h-0.1c-0.4,1.1-1.3,1.7-2.2,1.7c-0.8,0-1.1-0.6-0.8-2.5v-0.1 c0.4,0.1,0.8,0.1,1.2,0.1c1.1,0,2.3-0.4,2.3-1.5C53.38,37.6,52.88,37,51.48,37 M41.78,37.1L41.78,37.1l0.9,0.1l-0.9,5.1h1.3 l0.5-2.8c0.2-1.2,1.1-2.1,1.7-2.1c0.5,0,0.6,0.3,0.5,0.9l-0.5,2.8c-0.1,0.8,0.1,1.3,0.9,1.3s1.1-0.5,1.2-1l0.1-0.5h-0.1l-0.1,0.5 c-0.1,0.5-0.3,0.7-0.5,0.7c-0.3,0-0.3-0.2-0.2-0.9l0.4-2.4c0.2-1-0.1-1.7-1.1-1.7c-0.9,0-1.8,0.7-2.1,1.6l0.3-1.5 C44.08,37.1,41.78,37.1,41.78,37.1z M40.08,35.1c-0.4,0-0.7,0.3-0.7,0.7s0.3,0.7,0.7,0.7s0.7-0.3,0.7-0.7 C40.88,35.4,40.58,35.1,40.08,35.1 M38.38,37.1L38.38,37.1l0.9,0.1l-0.7,4c-0.1,0.8,0.1,1.3,0.9,1.3s1.1-0.5,1.2-1l0.1-0.5h-0.1 l-0.1,0.5c0,0.5-0.2,0.7-0.5,0.7s-0.3-0.2-0.2-0.9l0.7-4L38.38,37.1L38.38,37.1z M33.38,37.1l-0.4,2h0.1v-0.3 c0.1-0.8,1.1-1.6,1.7-1.6h1.3l-3.9,5v0.1h4.7l0.4-2.1h-0.1l-0.1,0.4c-0.1,0.8-1,1.6-1.7,1.6h-1.5l3.9-5v-0.1 C37.68,37.1,33.38,37.1,33.38,37.1z M28.98,37.2c0.7,0,1,0.8,0.8,1.9l-0.2,1.1c-0.2,1.2-0.8,2-1.5,2s-0.9-0.9-0.6-2.4 C27.78,37.9,28.18,37.2,28.98,37.2 M28.58,37c-1.2,0-2.3,0.9-2.6,2.7c-0.3,1.7,0.4,2.7,1.6,2.7c0.8,0,1.4-0.4,1.8-1.3 c-0.1,0.9,0.2,1.3,0.9,1.3c0.8,0,1.1-0.5,1.2-1l0.1-0.5h-0.1l-0.1,0.5c0,0.6-0.3,0.8-0.5,0.8c-0.3,0-0.4-0.2-0.2-0.9l0.7-4h-1.2 l-0.2,1.2C29.88,37.3,29.38,37,28.58,37 M22.48,37.2c0.7,0,1,0.8,0.8,1.9l-0.1,0.9c-0.2,1-0.8,1.8-1.5,1.8s-0.9-0.6-0.6-2.3 C21.18,38.1,21.68,37.2,22.48,37.2 M22.08,37c-1.3,0-2.3,1.1-2.6,2.6c-0.3,1.7,0.5,2.5,1.7,2.5c0.8,0,1.4-0.4,1.8-1.2l-0.4,2 c-0.1,0.8-0.6,1.5-1.7,1.5c-1,0-1.1-0.6-1.1-1.1c0.1-0.4,0.4-0.7,0.7-0.7c0.1,0,0.1,0,0.2,0c0-0.3-0.4-0.4-0.7-0.4 c-0.6,0-1.1,0.5-1.2,1c-0.1,0.8,0.4,1.4,2,1.4c1.7,0,2.8-0.8,3.1-2.1l1-5.6h-0.1c-0.3,0.5-0.9,1-1.3,1.1 C23.38,37.3,22.88,37,22.08,37 M15.78,37.2c0.7,0,1,0.8,0.8,1.9l-0.2,1.2c-0.2,1.1-0.8,1.9-1.5,1.9s-0.9-0.9-0.6-2.4 C14.58,37.9,15.08,37.2,15.78,37.2 M15.48,37c-1.2,0-2.3,0.9-2.6,2.7c-0.3,1.7,0.4,2.7,1.6,2.7c0.8,0,1.4-0.4,1.8-1.3 c-0.1,0.9,0.2,1.3,0.9,1.3c0.8,0,1.1-0.5,1.2-1l0.1-0.5h-0.1l-0.1,0.5c-0.1,0.5-0.3,0.7-0.5,0.7c-0.3,0-0.4-0.2-0.2-0.9l0.7-4h-1.3 l-0.2,1.2C16.78,37.3,16.18,37,15.48,37 M2.98,37.1L2.98,37.1l0.9,0.1l-0.9,5.1h1.4l0.4-2.8c0.2-1.2,1.1-2.1,1.7-2.1 c0.4,0,0.6,0.3,0.5,0.8l-0.7,4.1h1.3l0.5-3c0.2-1.1,1.1-2,1.6-2c0.4,0,0.6,0.3,0.5,0.8L9.68,41c-0.1,0.8,0.1,1.3,0.9,1.3 s1.1-0.5,1.2-1l0.1-0.5h-0.2l-0.1,0.5c-0.1,0.5-0.3,0.7-0.5,0.7c-0.3,0-0.3-0.2-0.2-0.9l0.4-2.4c0.2-1-0.1-1.7-1.1-1.7 c-0.9,0-1.7,0.7-2.1,1.6c0.1-1-0.2-1.6-1.1-1.6s-1.7,0.7-2.1,1.5l0.3-1.4h-2.1l0,0C3.08,37.1,2.98,37.1,2.98,37.1z"></path> </g> </svg> 